<?xml version="1.0" standalone="no"?>
<!DOCTYPE svg PUBLIC "-//W3C//DTD SVG 20010904//EN"
 "http://www.w3.org/TR/2001/REC-SVG-20010904/DTD/svg10.dtd">
<svg version="1.0" xmlns="http://www.w3.org/2000/svg"
 width="800.000000pt" height="800.000000pt" viewBox="0 0 800.000000 800.000000"
 preserveAspectRatio="xMidYMid meet">
<metadata>
Created by potrace 1.13, written by Peter Selinger 2001-2015
</metadata>
<g transform="translate(0.000000,800.000000) scale(0.100000,-0.100000)"
fill="#000000" stroke="none">
<path d="M3754 7060 c-42 -17 -76 -70 -137 -212 -29 -67 -47 -167 -47 -262 0
-158 28 -254 109 -378 94 -144 300 -363 409 -435 252 -166 406 -298 515 -440
57 -75 67 -99 67 -169 0 -47 -6 -65 -40 -121 -22 -37 -40 -70 -40 -74 0 -13
81 8 157 42 24 10 47 19 52 19 17 0 125 77 157 111 46 51 57 89 58 207 1 98
-2 112 -27 165 -50 101 -170 274 -242 350 -17 18 -41 48 -55 67 -13 19 -27 37
-30 40 -20 18 -81 102 -100 138 -17 35 -20 53 -14 85 6 39 66 139 127 212 143
172 163 211 154 291 -2 23 -13 53 -23 67 -32 42 -143 112 -174 109 -3 0 -13 4
-22 9 -19 10 -115 38 -173 49 -22 5 -51 11 -65 14 -14 4 -63 13 -109 22 -46 8
-89 18 -94 21 -10 6 -95 24 -182 39 -16 3 -39 9 -50 14 -26 10 -122 30 -143
29 -9 0 -26 -4 -38 -9z"/>
<path d="M2605 7053 c-11 -2 -58 -12 -105 -22 -47 -11 -92 -19 -100 -20 -8 0
-46 -7 -85 -16 -38 -9 -83 -18 -100 -21 -16 -3 -43 -9 -59 -14 -16 -6 -40 -10
-54 -10 -14 0 -39 -4 -56 -9 -17 -6 -57 -15 -89 -22 -70 -15 -84 -31 -98 -119
-15 -97 25 -322 66 -370 7 -8 25 -37 41 -65 38 -69 101 -153 149 -198 50 -46
165 -106 281 -146 110 -38 267 -94 354 -126 19 -7 96 -29 170 -49 176 -48 270
-75 295 -86 11 -4 41 -17 67 -29 26 -12 52 -21 58 -21 5 0 31 -12 57 -27 152
-85 216 -194 188 -323 l-8 -35 33 30 c128 118 181 188 206 273 13 45 14 60 3
105 -29 119 -172 266 -334 347 -17 8 -37 20 -45 26 -8 7 -49 30 -91 52 -94 49
-123 65 -129 73 -3 3 -21 15 -40 27 -20 11 -45 29 -57 39 -12 10 -42 34 -66
53 -73 57 -88 88 -89 183 -1 45 7 149 16 231 l18 148 -34 35 c-46 48 -83 69
-153 86 -64 16 -177 27 -210 20z"/>
<path d="M5372 6696 c-17 -7 -37 -17 -44 -24 -7 -7 -17 -12 -23 -12 -7 0 -55
-44 -107 -98 -202 -208 -266 -421 -208 -686 45 -201 129 -411 245 -611 83
-143 158 -365 159 -470 1 -100 -37 -160 -146 -233 -21 -13 -38 -28 -38 -33 0
-14 111 -22 209 -16 129 9 209 38 278 101 117 106 137 231 82 501 -67 330 -65
497 5 568 36 36 73 67 82 67 3 0 25 14 49 30 24 17 48 30 54 30 6 0 11 3 11 8
0 4 17 15 38 25 79 37 219 126 250 160 35 37 37 77 8 135 -39 77 -152 185
-236 226 -8 4 -49 31 -90 61 -41 30 -119 84 -172 120 -53 37 -102 73 -109 81
-6 8 -17 14 -24 14 -6 0 -24 11 -39 23 -48 42 -164 58 -234 33z"/>
<path d="M990 6681 c-8 -6 -32 -11 -52 -11 -20 0 -40 -4 -43 -10 -3 -5 -14
-10 -24 -10 -9 0 -26 -8 -37 -17 -11 -10 -26 -19 -34 -21 -8 -2 -16 -8 -18
-13 -2 -5 -10 -9 -18 -9 -8 0 -14 -4 -14 -10 0 -5 -6 -10 -13 -10 -7 0 -22 -8
-33 -18 -10 -10 -34 -25 -51 -32 -18 -8 -33 -18 -33 -22 0 -5 -6 -8 -13 -8 -7
0 -23 -9 -35 -20 -12 -11 -24 -20 -28 -20 -3 0 -26 -13 -51 -30 -24 -16 -48
-30 -54 -30 -5 0 -9 -3 -9 -7 0 -5 -24 -21 -53 -37 -28 -16 -54 -32 -57 -36
-3 -4 -24 -17 -48 -30 -23 -13 -42 -27 -42 -32 0 -4 -6 -8 -12 -8 -7 0 -30
-16 -52 -35 l-39 -35 7 -61 c4 -34 11 -69 16 -78 4 -9 14 -30 20 -47 6 -18 20
-41 31 -53 11 -12 17 -21 14 -21 -22 0 158 -164 224 -205 9 -5 18 -12 21 -15
13 -13 208 -113 255 -131 19 -7 57 -17 100 -25 11 -2 43 -8 70 -14 61 -13 186
-26 320 -34 139 -7 344 8 575 44 164 25 209 29 318 30 282 0 532 -130 532
-280 0 -43 12 -37 37 18 34 74 56 178 56 267 1 100 -27 169 -99 239 -108 106
-222 151 -434 172 -397 37 -601 77 -681 135 -15 10 -31 19 -36 19 -11 0 -57
49 -71 76 -10 19 -21 49 -57 149 -8 22 -25 82 -39 133 -28 107 -56 155 -105
178 -41 20 -189 30 -211 15z"/>
<path d="M6915 5742 c-32 -2 -64 -7 -70 -12 -6 -5 -42 -14 -80 -21 -39 -7 -74
-16 -79 -21 -6 -4 -22 -8 -37 -8 -15 0 -31 -4 -34 -10 -3 -5 -18 -10 -32 -10
-47 0 -227 -96 -277 -148 -145 -150 -288 -410 -321 -584 -7 -40 -23 -149 -35
-243 -27 -215 -52 -322 -96 -406 -26 -52 -116 -134 -159 -146 -99 -28 -127
-33 -194 -33 -39 0 -71 -4 -71 -8 0 -24 238 -95 370 -110 154 -18 261 -4 380
51 25 12 144 126 190 182 25 31 120 189 120 200 0 15 111 234 138 270 29 40
98 85 131 85 9 0 21 4 27 9 5 5 27 11 49 14 22 3 90 13 150 22 61 9 142 19
180 21 140 8 264 36 308 68 19 15 37 99 37 174 0 23 -10 64 -22 90 -24 53
-116 195 -129 200 -5 2 -9 8 -9 14 0 5 -9 22 -20 36 -12 15 -44 57 -73 94 -29
37 -68 88 -87 113 -69 91 -139 123 -255 117z"/>
<path d="M2655 5149 c-143 -6 -228 -19 -264 -38 -27 -15 -80 -93 -108 -161
-32 -77 -31 -171 1 -242 33 -72 108 -182 165 -242 25 -26 91 -77 146 -113 112
-74 166 -126 201 -195 27 -53 29 -74 12 -129 -6 -22 -9 -42 -5 -45 8 -8 86 29
134 64 35 26 43 39 48 76 7 42 -7 107 -27 131 -4 5 -8 15 -8 22 0 12 -108 213
-120 223 -3 3 -15 28 -26 55 -14 37 -19 74 -19 142 1 85 3 95 33 143 18 28 32
56 32 61 0 5 4 9 8 9 5 0 19 19 32 43 82 148 88 179 39 196 -33 11 -43 11
-274 0z"/>
<path d="M3325 5132 c-27 -14 -75 -51 -106 -81 -64 -65 -69 -80 -69 -243 0
-147 15 -211 96 -399 17 -41 24 -75 24 -124 0 -71 -10 -94 -70 -154 -50 -50
-40 -57 74 -53 60 3 121 36 166 89 44 54 51 89 65 318 6 95 19 158 37 179 4 6
8 16 8 23 0 18 49 93 80 121 14 13 75 47 136 77 120 58 144 76 144 106 0 21
-61 66 -97 72 -12 2 -26 6 -29 10 -4 4 -16 7 -26 7 -10 0 -26 4 -36 9 -86 44
-194 71 -277 70 -55 0 -81 -6 -120 -27z"/>
<path d="M1875 5000 c-3 -5 -19 -10 -36 -10 -16 0 -37 -4 -47 -9 -9 -5 -37
-18 -62 -29 -63 -29 -177 -81 -230 -106 -68 -32 -143 -79 -162 -101 -38 -44
-28 -169 22 -282 18 -41 114 -153 131 -153 5 0 19 -9 31 -20 13 -10 25 -18 28
-17 3 1 15 -7 27 -18 12 -11 39 -29 60 -40 21 -11 40 -23 43 -26 5 -6 44 -31
101 -63 38 -22 168 -55 284 -73 70 -10 96 -17 145 -40 117 -53 120 -54 172
-108 38 -38 56 -73 64 -124 4 -23 10 -41 14 -41 13 0 100 99 110 125 15 39 12
113 -5 149 -9 18 -39 53 -67 76 -28 24 -56 49 -62 55 -6 5 -24 19 -40 29 -16
10 -41 30 -57 44 -16 14 -37 30 -47 36 -87 51 -232 179 -232 204 0 6 -6 17
-13 24 -7 7 -25 39 -40 71 -26 56 -27 61 -24 231 2 172 2 175 -22 200 -25 26
-74 35 -86 16z"/>
<path d="M4080 4980 c-8 -5 -39 -20 -68 -34 -148 -69 -186 -115 -226 -278 -20
-78 -22 -103 -14 -153 15 -99 21 -295 10 -295 -6 0 -13 -8 -17 -19 -5 -17 -63
-52 -107 -65 -33 -10 -18 -25 36 -36 80 -16 152 8 213 72 33 35 102 165 123
233 35 112 150 202 330 257 89 27 155 66 155 93 0 16 -66 74 -105 92 -8 3 -32
21 -52 38 -20 17 -50 38 -65 46 -15 7 -30 16 -33 20 -28 31 -144 50 -180 29z"/>
<path d="M4483 4595 c-44 -14 -135 -78 -188 -133 -17 -17 -63 -93 -104 -169
-108 -203 -107 -202 -224 -234 -56 -16 -60 -38 -14 -73 40 -30 125 -27 199 7
31 14 59 31 63 37 3 5 34 29 68 52 34 23 76 55 94 71 86 79 176 101 370 91
194 -9 197 -6 129 146 -32 72 -135 198 -164 201 -4 0 -16 3 -27 6 -44 12 -162
11 -202 -2z"/>
<path d="M7110 4480 c-36 -9 -92 -27 -125 -39 -33 -13 -71 -26 -85 -30 -59
-19 -242 -112 -311 -158 -154 -104 -246 -195 -448 -441 -153 -187 -272 -278
-440 -336 -77 -26 -102 -29 -234 -33 -91 -2 -156 1 -168 7 -29 16 -23 -3 16
-50 81 -97 172 -155 287 -186 86 -22 292 -14 397 16 118 33 250 101 413 211
47 33 90 59 94 59 3 0 14 8 23 18 48 54 189 127 311 162 41 12 92 26 112 32
20 6 59 8 85 5 67 -8 218 -58 333 -109 64 -29 192 -36 258 -14 66 22 153 113
176 183 32 98 49 244 50 428 1 202 -4 222 -67 250 -100 44 -547 61 -677 25z"/>
<path d="M780 4380 c0 -5 -6 -10 -12 -10 -14 0 -62 -36 -115 -87 -19 -18 -37
-33 -39 -33 -6 0 -135 -123 -215 -206 -95 -98 -159 -196 -159 -245 0 -21 73
-99 113 -119 15 -7 27 -17 27 -22 0 -4 6 -8 14 -8 8 0 16 -3 18 -7 4 -11 63
-43 77 -43 7 0 21 -9 33 -20 12 -11 30 -20 40 -20 10 0 18 -4 18 -9 0 -5 10
-11 23 -14 46 -12 97 -32 97 -39 0 -5 10 -8 23 -8 13 0 27 -4 33 -9 20 -21 90
-26 334 -23 313 4 384 11 557 58 131 36 245 52 338 49 94 -2 132 -11 159 -37
11 -10 23 -18 28 -18 4 0 28 -21 53 -47 l45 -48 -1 45 c-1 119 -16 199 -44
236 -26 34 -76 71 -100 74 -5 1 -14 5 -20 9 -12 9 -81 24 -210 46 -102 17
-150 22 -356 34 -80 5 -154 13 -165 19 -10 5 -30 14 -44 19 -54 22 -87 39
-132 70 -26 18 -51 33 -55 33 -14 0 -103 100 -122 138 -35 68 -122 192 -165
233 -21 20 -76 26 -76 9z"/>
<path d="M4665 4160 c-70 -16 -140 -60 -232 -147 -94 -87 -130 -119 -151 -130
-12 -7 -55 -13 -96 -13 l-75 0 11 -30 c15 -44 64 -76 135 -90 72 -14 93 -9
183 50 112 72 135 79 250 77 l105 -2 60 -41 c79 -54 101 -61 114 -35 15 27 14
70 -5 170 -19 106 -51 166 -96 180 -43 13 -165 20 -203 11z"/>
<path d="M3082 3958 c-27 -35 -39 -74 -31 -104 10 -36 25 -51 59 -58 14 -3 39
-9 55 -12 17 -4 40 -14 53 -22 12 -8 25 -12 28 -9 12 11 -28 67 -59 83 -41 21
-53 38 -66 92 -12 43 -21 51 -39 30z"/>
<path d="M2856 3813 c-24 -70 -21 -97 15 -127 27 -23 39 -26 108 -26 43 0 100
-3 127 -7 46 -6 48 -5 35 11 -8 10 -35 27 -60 38 -108 48 -127 60 -161 108
-19 27 -38 49 -42 50 -3 0 -13 -21 -22 -47z"/>
<path d="M4635 3740 c-3 -5 -19 -10 -35 -10 -16 0 -32 -4 -35 -10 -3 -5 -16
-10 -28 -10 -12 0 -33 -9 -47 -20 -14 -11 -31 -20 -38 -20 -7 0 -20 -4 -30 -9
-103 -55 -172 -64 -238 -32 l-39 19 -3 -24 c-5 -33 27 -84 66 -107 38 -22 181
-26 252 -7 47 13 136 7 192 -12 55 -19 90 -43 150 -102 93 -90 122 -74 139 80
9 75 9 109 0 141 -12 45 -52 93 -76 93 -8 0 -15 4 -15 9 0 26 -200 46 -215 21z"/>
<path d="M2663 3546 c5 -75 28 -136 50 -136 6 -1 31 -5 54 -9 44 -9 73 1 153
50 75 47 143 79 165 79 13 0 26 4 30 10 10 15 -74 32 -134 26 -189 -19 -171
-21 -244 18 -37 20 -70 36 -74 36 -3 0 -3 -33 0 -74z"/>
<path d="M4080 3441 c0 -72 30 -111 105 -136 33 -11 65 -23 70 -26 6 -4 33
-10 60 -14 28 -5 52 -9 55 -9 3 -1 30 -14 61 -29 57 -28 109 -73 113 -98 4
-25 55 -129 63 -129 22 0 75 44 100 82 34 55 72 146 73 176 0 39 -47 100 -102
131 -28 17 -55 28 -60 25 -4 -3 -8 0 -8 6 0 7 -66 8 -217 4 l-218 -6 -42 36
c-22 20 -44 36 -47 36 -3 0 -6 -22 -6 -49z"/>
<path d="M3000 3389 c-25 -17 -63 -48 -85 -68 -54 -51 -105 -66 -194 -57 -59
6 -72 5 -77 -8 -8 -22 27 -74 90 -135 53 -49 57 -51 98 -45 95 13 103 19 150
107 23 45 49 96 58 112 17 36 67 85 86 85 23 0 16 16 -11 28 -40 18 -66 14
-115 -19z"/>
<path d="M203 3382 c-7 -5 -20 -51 -29 -103 -14 -77 -16 -135 -11 -324 10
-346 26 -387 182 -452 99 -42 175 -54 346 -56 179 -2 243 5 303 34 22 10 48
19 58 19 10 0 18 5 18 10 0 6 5 10 12 10 27 0 342 157 405 203 25 18 53 37 62
42 29 18 96 70 99 78 2 4 8 7 14 7 5 0 29 14 53 30 24 17 48 30 54 30 6 0 11
4 11 8 0 15 145 81 222 102 68 18 192 9 250 -18 26 -12 49 -22 52 -22 10 0
-24 103 -47 143 -37 62 -68 87 -177 143 -65 34 -165 28 -355 -18 -130 -32
-186 -48 -340 -100 -77 -27 -149 -44 -200 -48 -186 -17 -535 24 -535 62 0 5
-7 8 -16 8 -8 0 -30 11 -48 25 -18 14 -36 25 -40 25 -6 0 -115 69 -126 80 -3
3 -18 12 -35 20 -16 8 -32 17 -35 20 -3 3 -24 15 -46 28 -43 23 -79 28 -101
14z"/>
<path d="M3952 3327 c-38 -45 -16 -120 50 -167 24 -17 51 -37 61 -45 9 -8 20
-15 24 -15 13 0 94 -95 107 -125 7 -16 15 -56 19 -88 6 -63 23 -95 41 -77 5 5
16 10 24 10 7 0 33 14 57 30 24 17 48 30 53 30 5 0 17 9 27 20 10 11 24 20 30
20 36 0 33 84 -5 143 -43 69 -117 109 -270 148 -41 11 -89 26 -107 34 -34 17
-73 59 -73 81 0 17 -24 18 -38 1z"/>
<path d="M3196 3249 c-29 -23 -67 -91 -86 -157 -15 -47 -83 -122 -112 -122
-10 0 -18 -4 -18 -10 0 -5 -8 -10 -18 -10 -42 0 -82 -57 -52 -75 30 -18 150
-55 181 -55 51 0 123 57 136 108 3 14 3 77 0 141 -4 86 -2 126 9 156 17 49 17
45 0 45 -7 0 -25 -9 -40 -21z"/>
<path d="M3446 3230 c-26 -31 -46 -87 -46 -128 0 -13 7 -46 16 -73 10 -30 15
-67 12 -94 -5 -37 -14 -52 -68 -105 -72 -72 -70 -81 21 -106 94 -25 220 2 239
52 6 14 13 49 16 79 6 46 3 60 -19 97 -14 24 -36 54 -49 68 -64 71 -73 91 -72
168 2 82 -9 91 -50 42z"/>
<path d="M3739 3247 c-50 -37 -50 -93 1 -193 22 -44 48 -106 59 -139 l19 -60
-24 -64 c-29 -78 -30 -98 -4 -106 50 -16 224 31 261 71 61 65 -2 218 -122 299
-24 17 -46 32 -49 35 -3 3 -16 11 -30 18 -54 28 -72 51 -78 97 -5 52 -11 58
-33 42z"/>
<path d="M6445 3165 c-77 -7 -158 -19 -180 -25 -22 -6 -50 -14 -63 -17 -12 -3
-25 -9 -28 -14 -3 -5 -14 -9 -24 -9 -11 0 -35 -9 -55 -20 -20 -11 -42 -20 -49
-20 -12 0 -44 -14 -118 -51 -10 -5 -25 -9 -33 -9 -8 0 -15 -4 -15 -10 0 -5 -9
-10 -20 -10 -11 0 -35 -9 -55 -20 -20 -11 -46 -20 -60 -20 -13 0 -26 -4 -29
-9 -3 -5 -52 -14 -108 -20 -57 -6 -145 -16 -196 -23 -121 -14 -240 -4 -297 25
-25 12 -45 27 -45 33 0 6 -8 18 -18 28 -11 9 -25 34 -32 56 -7 22 -17 40 -22
40 -13 0 -9 -140 7 -209 30 -124 107 -226 212 -278 l58 -28 235 1 c129 1 282
7 340 13 179 21 354 25 408 11 107 -30 218 -135 321 -305 52 -85 69 -95 166
-95 85 0 153 20 220 63 46 31 163 147 198 197 17 25 36 50 42 56 5 6 29 33 52
60 23 27 64 74 93 104 57 61 90 117 90 152 0 86 -60 157 -212 250 -32 20 -194
73 -253 83 -22 4 -46 12 -53 17 -19 16 -319 18 -477 3z"/>
<path d="M2200 2851 c-8 -6 -23 -11 -33 -11 -52 0 -239 -164 -382 -335 -95
-113 -147 -165 -165 -165 -5 0 -10 -4 -10 -10 0 -5 -4 -10 -10 -10 -5 0 -33
-15 -62 -33 -29 -18 -66 -39 -83 -46 -16 -7 -38 -17 -47 -22 -10 -5 -25 -9
-33 -9 -8 0 -15 -4 -15 -10 0 -5 -7 -10 -15 -10 -9 0 -35 -9 -57 -20 -23 -11
-50 -20 -60 -20 -10 0 -18 -4 -18 -10 0 -5 -15 -10 -34 -10 -19 0 -37 -4 -40
-9 -3 -5 -20 -11 -38 -14 -18 -3 -55 -11 -83 -18 -59 -14 -204 -17 -407 -7
-170 8 -186 3 -166 -55 12 -33 239 -267 352 -362 32 -28 64 -55 70 -61 13 -12
124 -73 216 -119 106 -53 215 -67 332 -45 29 6 78 15 108 21 60 12 196 81 247
126 17 15 39 35 50 43 10 9 28 29 40 45 71 94 93 125 93 134 0 5 7 17 16 26
25 25 116 243 176 425 31 91 66 187 78 213 21 45 180 217 200 217 5 0 21 5 37
12 15 6 50 10 77 9 l49 -3 -24 30 c-32 39 -108 88 -155 101 -62 16 -187 23
-204 12z"/>
<path d="M2720 2616 c-85 -16 -153 -48 -200 -97 -59 -61 -64 -98 -57 -467 l5
-313 -39 -70 c-22 -38 -50 -81 -62 -96 -73 -85 -115 -126 -146 -142 -33 -16
-68 -34 -156 -79 -58 -29 -112 -80 -118 -112 -10 -48 10 -77 82 -116 142 -78
167 -90 201 -104 19 -7 78 -34 130 -60 116 -56 192 -86 245 -96 60 -12 75 -12
75 -3 0 5 16 9 35 9 19 0 35 3 35 8 0 4 13 13 30 20 64 29 133 97 170 167 6
11 26 45 45 75 62 99 69 119 73 220 7 181 -33 372 -119 570 -23 52 -45 100
-49 105 -4 6 -26 69 -50 140 -48 151 -58 265 -28 320 28 51 77 94 111 97 21 2
33 9 35 21 3 15 -6 17 -90 16 -51 -1 -122 -7 -158 -13z"/>
<path d="M4612 2593 c-50 -133 -53 -148 -53 -233 -1 -98 20 -162 69 -213 29
-30 96 -64 144 -72 16 -3 45 -12 66 -20 20 -7 71 -21 112 -30 41 -9 84 -21 95
-25 11 -5 37 -11 57 -13 20 -3 52 -12 70 -20 18 -9 47 -18 63 -21 65 -13 229
-68 233 -78 2 -4 11 -8 21 -8 24 0 98 -65 118 -104 13 -23 19 -69 23 -171 5
-97 11 -149 22 -170 20 -37 74 -95 91 -96 6 0 28 -2 47 -4 32 -4 103 4 185 20
54 10 309 123 325 144 6 8 38 26 127 72 154 79 189 116 200 207 8 75 -46 181
-147 283 -132 134 -227 185 -460 246 -199 51 -311 61 -505 43 -303 -29 -449
-23 -615 25 -86 24 -200 102 -200 135 0 7 -8 20 -17 29 -25 23 -43 57 -43 81
0 29 -16 25 -28 -7z"/>
<path d="M3380 2495 c-103 -32 -213 -114 -252 -189 -17 -30 -22 -59 -23 -111
0 -93 40 -183 166 -369 52 -77 99 -146 104 -155 6 -9 19 -29 30 -45 40 -62 57
-103 62 -158 12 -120 -38 -306 -99 -373 -13 -14 -40 -51 -59 -82 -29 -50 -34
-66 -34 -122 0 -62 2 -66 28 -79 34 -16 107 -26 317 -43 136 -11 170 -10 275
5 164 23 184 27 191 37 3 5 14 9 24 9 22 0 102 76 123 117 35 67 40 140 18
268 -28 163 -54 235 -121 335 -91 136 -188 231 -330 325 -25 17 -47 33 -50 36
-3 3 -28 24 -56 45 -28 21 -68 53 -90 69 -51 39 -48 37 -144 130 l-82 80 5
107 c3 78 9 115 21 134 23 35 17 42 -24 29z"/>
<path d="M4052 2419 c-81 -75 -128 -224 -102 -320 24 -90 119 -199 285 -330
44 -35 82 -66 85 -69 5 -6 112 -95 143 -120 11 -8 31 -33 45 -55 38 -60 39
-126 4 -265 -46 -175 -48 -199 -22 -243 39 -65 78 -78 253 -80 395 -5 584 36
632 137 13 28 16 55 12 128 -3 51 -7 100 -9 108 -36 130 -97 229 -203 335 -90
91 -198 178 -245 199 -14 6 -27 14 -30 18 -9 12 -161 79 -215 95 -27 8 -74 26
-103 39 -29 13 -57 24 -61 24 -5 0 -40 14 -78 31 -37 17 -77 35 -88 40 -36 16
-132 74 -165 99 -43 33 -70 92 -70 156 0 58 -9 114 -19 114 -3 0 -26 -18 -49
-41z"/>
</g>
</svg>
